#!OML:ASF E:\Style4\Style4.ASF
:FULLY-SPECIFIED
:DEGREES
1161
root -0.925842 16.5845 -1.4282 7.66016 20.345 5.26427
lowerback 19.0595 4.74067 0.00928682
upperback 10.411 6.29841 -1.44006
thorax 0.772014 3.2736 -2.63869
lowerneck 5.95374 -5.67725 -4.24901
upperneck -8.63557 -7.47262 6.44352
head -3.45588 -3.85878 3.25258
rclavicle -5.1684e-014 5.00937e-014
rhumerus 21.7609 11.9216 -72.6349
rradius 122.358
rwrist 24.7762
rhand 18.5823 -4.18632
rfingers 7.12502
rthumb 43.2122 -28.3568
lclavicle -5.1684e-014 5.00937e-014
lhumerus 19.4868 -15.5323 72.0195
lradius 123.21
lwrist -12.2196
lhand 10.7561 36.4712
lfingers 7.12502
lthumb 35.8432 62.8261
rfemur -35.9738 -12.5739 18.5011
rtibia 61.2249
rfoot -30.1586 -19.6079
rtoes -6.27927
lfemur -39.0153 -8.61353 -19.6149
ltibia 53.511
lfoot -19.2254 -4.89878
ltoes -13.4992
1162
root -0.917422 16.5897 -1.42672 7.63842 20.242 5.16584
lowerback 19.0504 4.62129 -0.0595364
upperback 10.3596 6.13018 -1.37635
thorax 0.697355 3.18175 -2.50716
lowerneck 5.9561 -5.51204 -4.48945
upperneck -8.56364 -7.28326 6.35318
head -3.43833 -3.75271 3.25612
rclavicle 1.47101e-014 8.74653e-015
rhumerus 21.843 12.4115 -72.5281
rradius 122.341
rwrist 25.1921
rhand 18.0653 -4.32097
rfingers 7.12502
rthumb 42.7287 -28.6621
lclavicle 1.47101e-014 8.74653e-015
lhumerus 19.1386 -15.2433 72.1035
lradius 123.254
lwrist -12.2483
lhand 10.6153 36.6061
lfingers 7.12502
lthumb 35.7097 62.9934
rfemur -35.9281 -12.5453 18.5677
rtibia 61.0335
rfoot -29.9033 -19.7444
rtoes -6.90609
lfemur -38.9736 -8.58103 -19.5409
ltibia 53.493
lfoot -19.1738 -4.96624
ltoes -12.8691
1163
root -0.907738 16.5974 -1.42527 7.6148 20.1676 5.12827
lowerback 19.056 4.47451 -0.167618
upperback 10.3242 5.92076 -1.32756
thorax 0.629803 3.0689 -2.36246
lowerneck 5.96836 -5.34332 -4.75302
upperneck -8.5198 -7.08912 6.28332
head -3.4318 -3.64457 3.27264
rclavicle 7.91163e-014 -8.74653e-015
rhumerus 21.9633 12.7581 -72.5682
rradius 122.447
rwrist 24.9304
rhand 18.352 -4.23489
rfingers 7.12502
rthumb 42.9969 -28.4819
lclavicle 7.91163e-014 -8.74653e-015
lhumerus 18.8389 -14.9172 72.206
lradius 123.276
lwrist -12.2955
lhand 10.5695 36.6937
lfingers 7.12502
lthumb 35.6663 63.0915
rfemur -35.8641 -12.5603 18.5642
rtibia 60.8644
rfoot -29.6338 -19.9069
rtoes -7.88911
lfemur -38.9039 -8.60185 -19.5388
ltibia 53.4463
lfoot -19.1935 -4.86915
ltoes -12.8087
1164
root -0.897645 16.6021 -1.42182 7.56524 20.0483 5.09119
lowerback 19.0852 4.51992 -0.040191
upperback 10.3117 5.99735 -1.42364
thorax 0.629322 3.11556 -2.55025
lowerneck 5.99735 -5.40891 -4.48739
upperneck -8.56819 -7.15498 6.24183
head -3.45993 -3.68436 3.21592
rclavicle 4.85035e-014 -4.77083e-014
rhumerus 21.8362 12.4045 -72.8061
rradius 122.625
rwrist 24.5463
rhand 18.9221 -4.15851
rfingers 7.12502
rthumb 43.5297 -28.2146
lclavicle 4.85035e-014 -4.77083e-014
lhumerus 19.0338 -15.1877 72.1861
lradius 123.238
lwrist -12.2405
lhand 10.8528 36.593
lfingers 7.12502
lthumb 35.9348 62.9255
rfemur -35.7114 -12.5856 18.5643
rtibia 60.755
rfoot -29.7108 -19.628
rtoes -7.4689
lfemur -38.7908 -8.57447 -19.5464
ltibia 53.3978
lfoot -19.2512 -4.71766
ltoes -13.1453
1165
root -0.890104 16.6076 -1.418 7.4983 19.9253 5.03917
lowerback 19.1007 4.5913 0.0643517
upperback 10.3209 6.10537 -1.4866
thorax 0.655238 3.17647 -2.69364
lowerneck 6.07651 -5.49436 -4.17979
upperneck -8.69614 -7.24667 6.15595
head -3.52722 -3.73689 3.14359
rclavicle -3.97569e-014 1.51076e-014
rhumerus 21.7106 12.1381 -72.9274
rradius 122.739
rwrist 24.5834
rhand 18.9596 -4.24184
rfingers 7.12502
rthumb 43.5646 -28.2852
lclavicle -3.97569e-014 1.51076e-014
lhumerus 19.2688 -15.5026 72.2273
lradius 123.206
lwrist -12.2355
lhand 11.352 36.4512
lfingers 7.12502
lthumb 36.4075 62.6666
rfemur -35.5578 -12.5618 18.589
rtibia 60.6644
rfoot -29.8378 -19.3864
rtoes -6.71136
lfemur -38.664 -8.54741 -19.5203
ltibia 53.3469
lfoot -19.2609 -4.67503
ltoes -13.1205
1166
root -0.882934 16.6139 -1.41531 7.43489 19.8093 4.98296
lowerback 19.0684 4.59848 0.0362128
upperback 10.341 6.11075 -1.46585
thorax 0.688159 3.17747 -2.65321
lowerneck 6.10703 -5.49246 -4.13198
upperneck -8.75642 -7.24352 6.103
head -3.55781 -3.73477 3.12095
rclavicle -7.15625e-015 -9.54166e-015
rhumerus 21.71 12.1643 -72.9256
rradius 122.795
rwrist 24.7043
rhand 18.8245 -4.27157
rfingers 7.12502
rthumb 43.4385 -28.3607
lclavicle -7.15625e-015 -9.54166e-015
lhumerus 19.2854 -15.5704 72.3606
lradius 123.165
lwrist -12.458
lhand 11.5788 36.2571
lfingers 7.12502
lthumb 36.6222 62.4183
rfemur -35.4685 -12.5365 18.617
rtibia 60.5983
rfoot -29.8629 -19.3444
rtoes -6.54815
lfemur -38.5495 -8.49245 -19.4941
ltibia 53.2969
lfoot -19.2586 -4.66833
ltoes -13.0614
1167
root -0.874996 16.6209 -1.41294 7.41341 19.7415 4.87757
lowerback 18.9605 4.57428 0.0594906
upperback 10.3641 6.08522 -1.42956
thorax 0.764406 3.16498 -2.61257
lowerneck 6.00449 -5.47831 -4.12776
upperneck -8.70315 -7.22474 6.07696
head -3.52132 -3.72349 3.10315
rclavicle -1.31198e-014 5.56597e-015
rhumerus 21.7732 12.1664 -72.923
rradius 122.818
rwrist 24.6391
rhand 18.773 -4.15106
rfingers 7.12502
rthumb 43.3904 -28.2576
lclavicle -1.31198e-014 5.56597e-015
lhumerus 19.2917 -15.6772 72.4108
lradius 123.105
lwrist -12.4482
lhand 11.2252 36.2948
lfingers 7.12502
lthumb 36.2875 62.5401
rfemur -35.4296 -12.5382 18.7037
rtibia 60.5408
rfoot -29.8542 -19.3409
rtoes -6.78386
lfemur -38.4983 -8.4947 -19.4088
ltibia 53.2473
lfoot -19.2698 -4.61118
ltoes -12.8539
1168
root -0.86933 16.6263 -1.41086 7.42103 19.6787 4.86786
lowerback 18.8926 4.55709 -0.0420557
upperback 10.3654 6.04781 -1.39305
thorax 0.783361 3.14036 -2.50575
lowerneck 5.95476 -5.44763 -4.1209
upperneck -8.63886 -7.18882 6.01005
head -3.4938 -3.70247 3.07263
rclavicle 4.45278e-014 -2.46493e-014
rhumerus 21.7929 12.1877 -72.9463
rradius 122.858
rwrist 24.5056
rhand 18.8658 -3.93999
rfingers 7.12502
rthumb 43.4771 -28.0152
lclavicle 4.45278e-014 -2.46493e-014
lhumerus 19.2059 -15.8028 72.4658
lradius 123.075
lwrist -12.2669
lhand 10.8012 36.3787
lfingers 7.12502
lthumb 35.8859 62.7232
rfemur -35.4069 -12.5375 18.6878
rtibia 60.5103
rfoot -29.9034 -19.2067
rtoes -6.58929
lfemur -38.4434 -8.50995 -19.4185
ltibia 53.1826
lfoot -19.2947 -4.53046
ltoes -12.8159
1169
root -0.863324 16.6306 -1.40891 7.40009 19.6131 4.83946
lowerback 18.8607 4.55767 -0.0856679
upperback 10.3643 6.04194 -1.36207
thorax 0.789738 3.13416 -2.44545
lowerneck 6.00314 -5.44208 -4.06332
upperneck -8.67115 -7.18374 5.92688
head -3.51946 -3.69855 3.03759
rclavicle 1.63003e-014 -3.18055e-015
rhumerus 21.8025 12.0966 -72.9831
rradius 122.925
rwrist 24.3114
rhand 19.0845 -3.83656
rfingers 7.12502
rthumb 43.6813 -27.8373
lclavicle 1.63003e-014 -3.18055e-015
lhumerus 19.1434 -15.8558 72.5915
lradius 123.074
lwrist -12.2739
lhand 11.0225 36.3957
lfingers 7.12502
lthumb 36.0955 62.6887
rfemur -35.342 -12.5257 18.6909
rtibia 60.4419
rfoot -29.9278 -19.1187
rtoes -6.52673
lfemur -38.3812 -8.53667 -19.4051
ltibia 53.1227
lfoot -19.3164 -4.43276
ltoes -13.074
1170
root -0.855391 16.636 -1.40718 7.36523 19.5125 4.83779
lowerback 18.8416 4.56624 -0.140633
upperback 10.3785 6.0447 -1.34746
thorax 0.80751 3.13271 -2.39779
lowerneck 6.04979 -5.43485 -4.08446
upperneck -8.72172 -7.17603 5.92926
head -3.54592 -3.6945 3.04643
rclavicle 3.69739e-014 7.15625e-015
rhumerus 21.8423 12.0678 -72.9852
rradius 122.951
rwrist 24.2806
rhand 19.0163 -3.86584
rfingers 7.12502
rthumb 43.6177 -27.8899
lclavicle 3.69739e-014 7.15625e-015
lhumerus 19.1467 -15.8627 72.6756
lradius 123.057
lwrist -12.4903
lhand 11.4527 36.3596
lfingers 7.12502
lthumb 36.5028 62.551
rfemur -35.2417 -12.4586 18.6383
rtibia 60.3404
rfoot -29.72 -19.1204
rtoes -6.90535
lfemur -38.273 -8.51218 -19.4371
ltibia 53.0548
lfoot -19.3439 -4.37902
ltoes -13.0452
